<mxfile host="app.diagrams.net" agent="Mozilla/5.0 (Windows NT 10.0; Win64; x64) AppleWebKit/537.36 (KHTML, like Gecko) Chrome/131.0.0.0 Safari/537.36 OPR/116.0.0.0" version="26.0.14" pages="5">
  <diagram name="EJERCICIO 1" id="h40RzdcBFGziD04qHUnH">
    <mxGraphModel dx="1905" dy="441" grid="1" gridSize="10" guides="1" tooltips="1" connect="1" arrows="1" fold="1" page="1" pageScale="1" pageWidth="827" pageHeight="1169" math="0" shadow="0">
      <root>
        <mxCell id="0" />
        <mxCell id="1" parent="0" />
        <mxCell id="ppetuwwVpqm0dInIYWNb-1" value="inicio&lt;div&gt;&lt;br&gt;&lt;/div&gt;" style="ellipse;whiteSpace=wrap;html=1;" vertex="1" parent="1">
          <mxGeometry x="200" y="50" width="120" height="80" as="geometry" />
        </mxCell>
        <mxCell id="ppetuwwVpqm0dInIYWNb-2" value="" style="endArrow=classic;html=1;rounded=0;exitX=0.5;exitY=1;exitDx=0;exitDy=0;" edge="1" parent="1" source="ppetuwwVpqm0dInIYWNb-1">
          <mxGeometry width="50" height="50" relative="1" as="geometry">
            <mxPoint x="390" y="260" as="sourcePoint" />
            <mxPoint x="260" y="160" as="targetPoint" />
          </mxGeometry>
        </mxCell>
        <mxCell id="ppetuwwVpqm0dInIYWNb-4" value="" style="edgeStyle=orthogonalEdgeStyle;rounded=0;orthogonalLoop=1;jettySize=auto;html=1;exitX=0.5;exitY=0;exitDx=0;exitDy=0;" edge="1" parent="1" source="ppetuwwVpqm0dInIYWNb-3" target="ppetuwwVpqm0dInIYWNb-1">
          <mxGeometry relative="1" as="geometry">
            <mxPoint x="260" y="170" as="sourcePoint" />
          </mxGeometry>
        </mxCell>
        <mxCell id="ppetuwwVpqm0dInIYWNb-3" value="&quot;Ingresar un número&quot;&lt;div&gt;&lt;br&gt;&lt;/div&gt;" style="shape=parallelogram;perimeter=parallelogramPerimeter;whiteSpace=wrap;html=1;fixedSize=1;" vertex="1" parent="1">
          <mxGeometry x="160" y="160" width="200" height="70" as="geometry" />
        </mxCell>
        <mxCell id="ppetuwwVpqm0dInIYWNb-5" value="" style="endArrow=classic;html=1;rounded=0;exitX=0.5;exitY=1;exitDx=0;exitDy=0;" edge="1" parent="1" source="ppetuwwVpqm0dInIYWNb-3" target="ppetuwwVpqm0dInIYWNb-6">
          <mxGeometry width="50" height="50" relative="1" as="geometry">
            <mxPoint x="390" y="260" as="sourcePoint" />
            <mxPoint x="440" y="210" as="targetPoint" />
            <Array as="points">
              <mxPoint x="260" y="250" />
            </Array>
          </mxGeometry>
        </mxCell>
        <mxCell id="ppetuwwVpqm0dInIYWNb-6" value="&amp;nbsp;&quot;¿El número &amp;gt; 0?&quot;" style="rhombus;whiteSpace=wrap;html=1;" vertex="1" parent="1">
          <mxGeometry x="150" y="270" width="220" height="80" as="geometry" />
        </mxCell>
        <mxCell id="ppetuwwVpqm0dInIYWNb-10" value="&quot;El número es positivo&quot;" style="shape=parallelogram;perimeter=parallelogramPerimeter;whiteSpace=wrap;html=1;fixedSize=1;" vertex="1" parent="1">
          <mxGeometry x="500" y="280" width="120" height="60" as="geometry" />
        </mxCell>
        <mxCell id="ppetuwwVpqm0dInIYWNb-17" value="" style="edgeStyle=orthogonalEdgeStyle;rounded=0;orthogonalLoop=1;jettySize=auto;html=1;" edge="1" parent="1" source="ppetuwwVpqm0dInIYWNb-12" target="ppetuwwVpqm0dInIYWNb-6">
          <mxGeometry relative="1" as="geometry" />
        </mxCell>
        <mxCell id="ppetuwwVpqm0dInIYWNb-18" value="" style="edgeStyle=orthogonalEdgeStyle;rounded=0;orthogonalLoop=1;jettySize=auto;html=1;" edge="1" parent="1" source="ppetuwwVpqm0dInIYWNb-12" target="ppetuwwVpqm0dInIYWNb-10">
          <mxGeometry relative="1" as="geometry" />
        </mxCell>
        <mxCell id="ppetuwwVpqm0dInIYWNb-12" value="si&lt;div&gt;&lt;br&gt;&lt;/div&gt;" style="text;html=1;align=center;verticalAlign=middle;resizable=0;points=[];autosize=1;strokeColor=none;fillColor=none;" vertex="1" parent="1">
          <mxGeometry x="400" y="290" width="30" height="40" as="geometry" />
        </mxCell>
        <mxCell id="ppetuwwVpqm0dInIYWNb-16" value="" style="edgeStyle=orthogonalEdgeStyle;rounded=0;orthogonalLoop=1;jettySize=auto;html=1;" edge="1" parent="1" source="ppetuwwVpqm0dInIYWNb-14" target="ppetuwwVpqm0dInIYWNb-15">
          <mxGeometry relative="1" as="geometry" />
        </mxCell>
        <mxCell id="ppetuwwVpqm0dInIYWNb-19" value="" style="edgeStyle=orthogonalEdgeStyle;rounded=0;orthogonalLoop=1;jettySize=auto;html=1;" edge="1" parent="1" source="ppetuwwVpqm0dInIYWNb-14" target="ppetuwwVpqm0dInIYWNb-6">
          <mxGeometry relative="1" as="geometry" />
        </mxCell>
        <mxCell id="ppetuwwVpqm0dInIYWNb-14" value="no" style="text;html=1;align=center;verticalAlign=middle;resizable=0;points=[];autosize=1;strokeColor=none;fillColor=none;" vertex="1" parent="1">
          <mxGeometry x="90" y="295" width="40" height="30" as="geometry" />
        </mxCell>
        <mxCell id="ppetuwwVpqm0dInIYWNb-24" value="" style="edgeStyle=orthogonalEdgeStyle;rounded=0;orthogonalLoop=1;jettySize=auto;html=1;" edge="1" parent="1" source="ppetuwwVpqm0dInIYWNb-15" target="ppetuwwVpqm0dInIYWNb-23">
          <mxGeometry relative="1" as="geometry" />
        </mxCell>
        <mxCell id="ppetuwwVpqm0dInIYWNb-15" value="&quot;El numero es negativo&quot;" style="shape=parallelogram;perimeter=parallelogramPerimeter;whiteSpace=wrap;html=1;fixedSize=1;" vertex="1" parent="1">
          <mxGeometry x="-70" y="280" width="120" height="60" as="geometry" />
        </mxCell>
        <mxCell id="ppetuwwVpqm0dInIYWNb-26" value="" style="edgeStyle=orthogonalEdgeStyle;rounded=0;orthogonalLoop=1;jettySize=auto;html=1;" edge="1" parent="1" source="ppetuwwVpqm0dInIYWNb-23" target="ppetuwwVpqm0dInIYWNb-25">
          <mxGeometry relative="1" as="geometry" />
        </mxCell>
        <mxCell id="ppetuwwVpqm0dInIYWNb-30" value="" style="edgeStyle=orthogonalEdgeStyle;rounded=0;orthogonalLoop=1;jettySize=auto;html=1;" edge="1" parent="1" source="ppetuwwVpqm0dInIYWNb-23" target="ppetuwwVpqm0dInIYWNb-29">
          <mxGeometry relative="1" as="geometry" />
        </mxCell>
        <mxCell id="ppetuwwVpqm0dInIYWNb-40" style="edgeStyle=orthogonalEdgeStyle;rounded=0;orthogonalLoop=1;jettySize=auto;html=1;entryX=0.5;entryY=0;entryDx=0;entryDy=0;" edge="1" parent="1" source="ppetuwwVpqm0dInIYWNb-23" target="ppetuwwVpqm0dInIYWNb-42">
          <mxGeometry relative="1" as="geometry">
            <mxPoint x="-10" y="540" as="targetPoint" />
          </mxGeometry>
        </mxCell>
        <mxCell id="ppetuwwVpqm0dInIYWNb-23" value="¿El número &amp;lt; 0?" style="rhombus;whiteSpace=wrap;html=1;" vertex="1" parent="1">
          <mxGeometry x="-50" y="410" width="80" height="80" as="geometry" />
        </mxCell>
        <mxCell id="ppetuwwVpqm0dInIYWNb-28" value="" style="edgeStyle=orthogonalEdgeStyle;rounded=0;orthogonalLoop=1;jettySize=auto;html=1;" edge="1" parent="1" source="ppetuwwVpqm0dInIYWNb-25" target="ppetuwwVpqm0dInIYWNb-27">
          <mxGeometry relative="1" as="geometry" />
        </mxCell>
        <mxCell id="ppetuwwVpqm0dInIYWNb-25" value="si&lt;div&gt;&lt;br&gt;&lt;/div&gt;" style="text;html=1;align=center;verticalAlign=middle;resizable=0;points=[];autosize=1;strokeColor=none;fillColor=none;" vertex="1" parent="1">
          <mxGeometry x="50" y="430" width="30" height="40" as="geometry" />
        </mxCell>
        <mxCell id="ppetuwwVpqm0dInIYWNb-27" value="&quot;El número es negativo&quot;." style="shape=parallelogram;perimeter=parallelogramPerimeter;whiteSpace=wrap;html=1;fixedSize=1;" vertex="1" parent="1">
          <mxGeometry x="115" y="420" width="120" height="60" as="geometry" />
        </mxCell>
        <mxCell id="ppetuwwVpqm0dInIYWNb-32" value="" style="edgeStyle=orthogonalEdgeStyle;rounded=0;orthogonalLoop=1;jettySize=auto;html=1;" edge="1" parent="1" source="ppetuwwVpqm0dInIYWNb-29" target="ppetuwwVpqm0dInIYWNb-31">
          <mxGeometry relative="1" as="geometry" />
        </mxCell>
        <mxCell id="ppetuwwVpqm0dInIYWNb-29" value="no&lt;div&gt;&lt;br&gt;&lt;/div&gt;" style="text;html=1;align=center;verticalAlign=middle;resizable=0;points=[];autosize=1;strokeColor=none;fillColor=none;" vertex="1" parent="1">
          <mxGeometry x="-130" y="430" width="40" height="40" as="geometry" />
        </mxCell>
        <mxCell id="ppetuwwVpqm0dInIYWNb-31" value="&quot;El número es cero&quot;" style="shape=parallelogram;perimeter=parallelogramPerimeter;whiteSpace=wrap;html=1;fixedSize=1;" vertex="1" parent="1">
          <mxGeometry x="-290" y="420" width="120" height="60" as="geometry" />
        </mxCell>
        <mxCell id="ppetuwwVpqm0dInIYWNb-37" value="" style="endArrow=none;html=1;rounded=0;exitX=0.5;exitY=0;exitDx=0;exitDy=0;" edge="1" parent="1" source="ppetuwwVpqm0dInIYWNb-31">
          <mxGeometry width="50" height="50" relative="1" as="geometry">
            <mxPoint x="230" y="360" as="sourcePoint" />
            <mxPoint x="-230" y="210" as="targetPoint" />
          </mxGeometry>
        </mxCell>
        <mxCell id="ppetuwwVpqm0dInIYWNb-38" value="" style="endArrow=classic;html=1;rounded=0;entryX=0;entryY=0;entryDx=0;entryDy=0;" edge="1" parent="1" target="ppetuwwVpqm0dInIYWNb-3">
          <mxGeometry width="50" height="50" relative="1" as="geometry">
            <mxPoint x="-230" y="220" as="sourcePoint" />
            <mxPoint x="280" y="310" as="targetPoint" />
          </mxGeometry>
        </mxCell>
        <mxCell id="ppetuwwVpqm0dInIYWNb-42" value="fin&lt;div&gt;&lt;br&gt;&lt;/div&gt;" style="ellipse;whiteSpace=wrap;html=1;" vertex="1" parent="1">
          <mxGeometry x="-80" y="540" width="120" height="80" as="geometry" />
        </mxCell>
      </root>
    </mxGraphModel>
  </diagram>
  <diagram id="E_9Aqn1Ekd8ew9vrnWPy" name="EJERCICIO 2">
    <mxGraphModel dx="1078" dy="441" grid="1" gridSize="10" guides="1" tooltips="1" connect="1" arrows="1" fold="1" page="1" pageScale="1" pageWidth="827" pageHeight="1169" math="0" shadow="0">
      <root>
        <mxCell id="0" />
        <mxCell id="1" parent="0" />
        <mxCell id="kgEmoHbcg7crbnTSvB_r-1" value="inicio&lt;div&gt;&lt;br&gt;&lt;/div&gt;" style="ellipse;whiteSpace=wrap;html=1;" vertex="1" parent="1">
          <mxGeometry x="350" y="190" width="120" height="80" as="geometry" />
        </mxCell>
        <mxCell id="kgEmoHbcg7crbnTSvB_r-2" value="" style="endArrow=classic;html=1;rounded=0;exitX=0.5;exitY=1;exitDx=0;exitDy=0;entryX=0.5;entryY=0;entryDx=0;entryDy=0;" edge="1" parent="1" source="kgEmoHbcg7crbnTSvB_r-1" target="kgEmoHbcg7crbnTSvB_r-3">
          <mxGeometry width="50" height="50" relative="1" as="geometry">
            <mxPoint x="390" y="260" as="sourcePoint" />
            <mxPoint x="410" y="290" as="targetPoint" />
          </mxGeometry>
        </mxCell>
        <mxCell id="kgEmoHbcg7crbnTSvB_r-3" value="&quot;Ingresar un número&quot;" style="shape=parallelogram;perimeter=parallelogramPerimeter;whiteSpace=wrap;html=1;fixedSize=1;" vertex="1" parent="1">
          <mxGeometry x="310" y="290" width="200" height="60" as="geometry" />
        </mxCell>
        <mxCell id="kgEmoHbcg7crbnTSvB_r-4" value="" style="endArrow=classic;html=1;rounded=0;exitX=0.5;exitY=1;exitDx=0;exitDy=0;" edge="1" parent="1" source="kgEmoHbcg7crbnTSvB_r-3" target="kgEmoHbcg7crbnTSvB_r-5">
          <mxGeometry width="50" height="50" relative="1" as="geometry">
            <mxPoint x="390" y="260" as="sourcePoint" />
            <mxPoint x="410" y="390" as="targetPoint" />
          </mxGeometry>
        </mxCell>
        <mxCell id="kgEmoHbcg7crbnTSvB_r-7" value="" style="edgeStyle=orthogonalEdgeStyle;rounded=0;orthogonalLoop=1;jettySize=auto;html=1;" edge="1" parent="1" source="kgEmoHbcg7crbnTSvB_r-5" target="kgEmoHbcg7crbnTSvB_r-6">
          <mxGeometry relative="1" as="geometry" />
        </mxCell>
        <mxCell id="kgEmoHbcg7crbnTSvB_r-12" value="" style="edgeStyle=orthogonalEdgeStyle;rounded=0;orthogonalLoop=1;jettySize=auto;html=1;" edge="1" parent="1" source="kgEmoHbcg7crbnTSvB_r-5" target="kgEmoHbcg7crbnTSvB_r-11">
          <mxGeometry relative="1" as="geometry" />
        </mxCell>
        <mxCell id="kgEmoHbcg7crbnTSvB_r-5" value="&quot;¿Número % 2 == 0?&quot;" style="rhombus;whiteSpace=wrap;html=1;" vertex="1" parent="1">
          <mxGeometry x="330" y="390" width="160" height="80" as="geometry" />
        </mxCell>
        <mxCell id="kgEmoHbcg7crbnTSvB_r-10" value="" style="edgeStyle=orthogonalEdgeStyle;rounded=0;orthogonalLoop=1;jettySize=auto;html=1;" edge="1" parent="1" source="kgEmoHbcg7crbnTSvB_r-6" target="kgEmoHbcg7crbnTSvB_r-9">
          <mxGeometry relative="1" as="geometry" />
        </mxCell>
        <mxCell id="kgEmoHbcg7crbnTSvB_r-6" value="si&lt;div&gt;&lt;br&gt;&lt;/div&gt;" style="text;html=1;align=center;verticalAlign=middle;resizable=0;points=[];autosize=1;strokeColor=none;fillColor=none;" vertex="1" parent="1">
          <mxGeometry x="510" y="410" width="30" height="40" as="geometry" />
        </mxCell>
        <mxCell id="kgEmoHbcg7crbnTSvB_r-20" style="edgeStyle=orthogonalEdgeStyle;rounded=0;orthogonalLoop=1;jettySize=auto;html=1;exitX=0.5;exitY=1;exitDx=0;exitDy=0;entryX=0.5;entryY=0;entryDx=0;entryDy=0;" edge="1" parent="1" source="kgEmoHbcg7crbnTSvB_r-9" target="kgEmoHbcg7crbnTSvB_r-21">
          <mxGeometry relative="1" as="geometry">
            <mxPoint x="645" y="540" as="targetPoint" />
          </mxGeometry>
        </mxCell>
        <mxCell id="kgEmoHbcg7crbnTSvB_r-9" value="&quot;El número es par&quot;." style="shape=parallelogram;perimeter=parallelogramPerimeter;whiteSpace=wrap;html=1;fixedSize=1;" vertex="1" parent="1">
          <mxGeometry x="560" y="400" width="170" height="60" as="geometry" />
        </mxCell>
        <mxCell id="kgEmoHbcg7crbnTSvB_r-14" value="" style="edgeStyle=orthogonalEdgeStyle;rounded=0;orthogonalLoop=1;jettySize=auto;html=1;" edge="1" parent="1" source="kgEmoHbcg7crbnTSvB_r-11" target="kgEmoHbcg7crbnTSvB_r-13">
          <mxGeometry relative="1" as="geometry" />
        </mxCell>
        <mxCell id="kgEmoHbcg7crbnTSvB_r-11" value="no&lt;div&gt;&lt;br&gt;&lt;/div&gt;" style="text;html=1;align=center;verticalAlign=middle;resizable=0;points=[];autosize=1;strokeColor=none;fillColor=none;" vertex="1" parent="1">
          <mxGeometry x="260" y="410" width="40" height="40" as="geometry" />
        </mxCell>
        <mxCell id="kgEmoHbcg7crbnTSvB_r-13" value="&quot;El número es impar&quot;." style="shape=parallelogram;perimeter=parallelogramPerimeter;whiteSpace=wrap;html=1;fixedSize=1;" vertex="1" parent="1">
          <mxGeometry x="70" y="400" width="150" height="60" as="geometry" />
        </mxCell>
        <mxCell id="kgEmoHbcg7crbnTSvB_r-19" value="" style="curved=1;endArrow=classic;html=1;rounded=0;exitX=0.5;exitY=0;exitDx=0;exitDy=0;" edge="1" parent="1" source="kgEmoHbcg7crbnTSvB_r-13" target="kgEmoHbcg7crbnTSvB_r-3">
          <mxGeometry width="50" height="50" relative="1" as="geometry">
            <mxPoint x="-10" y="400" as="sourcePoint" />
            <mxPoint x="285" y="290" as="targetPoint" />
            <Array as="points">
              <mxPoint x="285" y="340" />
              <mxPoint x="-5" y="290" />
              <mxPoint x="235" y="290" />
            </Array>
          </mxGeometry>
        </mxCell>
        <mxCell id="kgEmoHbcg7crbnTSvB_r-21" value="fin&lt;div&gt;&lt;br&gt;&lt;/div&gt;" style="ellipse;whiteSpace=wrap;html=1;" vertex="1" parent="1">
          <mxGeometry x="585" y="550" width="120" height="80" as="geometry" />
        </mxCell>
      </root>
    </mxGraphModel>
  </diagram>
  <diagram id="dXNqeo5p_gRqukShk9G3" name="EJERCICIO 3">
    <mxGraphModel dx="1905" dy="441" grid="1" gridSize="10" guides="1" tooltips="1" connect="1" arrows="1" fold="1" page="1" pageScale="1" pageWidth="827" pageHeight="1169" math="0" shadow="0">
      <root>
        <mxCell id="0" />
        <mxCell id="1" parent="0" />
        <mxCell id="1g7H_u_md6x3JNWwbRPS-1" value="inicio&lt;div&gt;&lt;br&gt;&lt;/div&gt;" style="ellipse;whiteSpace=wrap;html=1;" vertex="1" parent="1">
          <mxGeometry x="350" y="190" width="120" height="80" as="geometry" />
        </mxCell>
        <mxCell id="1g7H_u_md6x3JNWwbRPS-5" value="" style="edgeStyle=orthogonalEdgeStyle;rounded=0;orthogonalLoop=1;jettySize=auto;html=1;" edge="1" parent="1" source="1g7H_u_md6x3JNWwbRPS-1" target="1g7H_u_md6x3JNWwbRPS-4">
          <mxGeometry relative="1" as="geometry">
            <mxPoint x="410" y="270" as="sourcePoint" />
            <mxPoint x="410" y="360" as="targetPoint" />
          </mxGeometry>
        </mxCell>
        <mxCell id="1g7H_u_md6x3JNWwbRPS-8" value="" style="edgeStyle=orthogonalEdgeStyle;rounded=0;orthogonalLoop=1;jettySize=auto;html=1;" edge="1" parent="1" source="1g7H_u_md6x3JNWwbRPS-4" target="1g7H_u_md6x3JNWwbRPS-7">
          <mxGeometry relative="1" as="geometry" />
        </mxCell>
        <mxCell id="1g7H_u_md6x3JNWwbRPS-4" value="&quot;Ingresar el primer número (A)&quot;" style="shape=parallelogram;perimeter=parallelogramPerimeter;whiteSpace=wrap;html=1;fixedSize=1;" vertex="1" parent="1">
          <mxGeometry x="310" y="360" width="200" height="60" as="geometry" />
        </mxCell>
        <mxCell id="1g7H_u_md6x3JNWwbRPS-10" value="" style="edgeStyle=orthogonalEdgeStyle;rounded=0;orthogonalLoop=1;jettySize=auto;html=1;" edge="1" parent="1" source="1g7H_u_md6x3JNWwbRPS-7" target="1g7H_u_md6x3JNWwbRPS-9">
          <mxGeometry relative="1" as="geometry" />
        </mxCell>
        <mxCell id="1g7H_u_md6x3JNWwbRPS-7" value="&amp;nbsp;&quot;Ingresar el segundo número (B)&quot;" style="shape=parallelogram;perimeter=parallelogramPerimeter;whiteSpace=wrap;html=1;fixedSize=1;" vertex="1" parent="1">
          <mxGeometry x="310" y="510" width="200" height="60" as="geometry" />
        </mxCell>
        <mxCell id="1g7H_u_md6x3JNWwbRPS-14" style="edgeStyle=orthogonalEdgeStyle;rounded=0;orthogonalLoop=1;jettySize=auto;html=1;entryX=1;entryY=0.5;entryDx=0;entryDy=0;" edge="1" parent="1" source="1g7H_u_md6x3JNWwbRPS-9" target="1g7H_u_md6x3JNWwbRPS-19">
          <mxGeometry relative="1" as="geometry">
            <mxPoint x="300" y="680" as="targetPoint" />
          </mxGeometry>
        </mxCell>
        <mxCell id="1g7H_u_md6x3JNWwbRPS-15" value="NO" style="edgeLabel;html=1;align=center;verticalAlign=middle;resizable=0;points=[];" vertex="1" connectable="0" parent="1g7H_u_md6x3JNWwbRPS-14">
          <mxGeometry x="-0.1206" y="-1" relative="1" as="geometry">
            <mxPoint as="offset" />
          </mxGeometry>
        </mxCell>
        <mxCell id="1g7H_u_md6x3JNWwbRPS-9" value="&quot;¿A &amp;gt; B?&quot;" style="rhombus;whiteSpace=wrap;html=1;" vertex="1" parent="1">
          <mxGeometry x="370" y="640" width="80" height="80" as="geometry" />
        </mxCell>
        <mxCell id="1g7H_u_md6x3JNWwbRPS-11" value="" style="edgeStyle=none;orthogonalLoop=1;jettySize=auto;html=1;rounded=0;exitX=1;exitY=0.5;exitDx=0;exitDy=0;entryX=0;entryY=0.5;entryDx=0;entryDy=0;" edge="1" parent="1" source="1g7H_u_md6x3JNWwbRPS-9" target="1g7H_u_md6x3JNWwbRPS-13">
          <mxGeometry width="100" relative="1" as="geometry">
            <mxPoint x="460" y="679.5" as="sourcePoint" />
            <mxPoint x="560" y="679.5" as="targetPoint" />
            <Array as="points" />
          </mxGeometry>
        </mxCell>
        <mxCell id="1g7H_u_md6x3JNWwbRPS-12" value="SI" style="edgeLabel;html=1;align=center;verticalAlign=middle;resizable=0;points=[];" vertex="1" connectable="0" parent="1g7H_u_md6x3JNWwbRPS-11">
          <mxGeometry x="-0.0728" y="-1" relative="1" as="geometry">
            <mxPoint as="offset" />
          </mxGeometry>
        </mxCell>
        <mxCell id="1g7H_u_md6x3JNWwbRPS-27" style="edgeStyle=orthogonalEdgeStyle;rounded=0;orthogonalLoop=1;jettySize=auto;html=1;entryX=1;entryY=1;entryDx=0;entryDy=0;entryPerimeter=0;" edge="1" parent="1" source="1g7H_u_md6x3JNWwbRPS-13" target="1g7H_u_md6x3JNWwbRPS-28">
          <mxGeometry relative="1" as="geometry">
            <mxPoint x="590" y="900" as="targetPoint" />
          </mxGeometry>
        </mxCell>
        <mxCell id="1g7H_u_md6x3JNWwbRPS-13" value="&quot;A es el mayor&quot;" style="shape=parallelogram;perimeter=parallelogramPerimeter;whiteSpace=wrap;html=1;fixedSize=1;" vertex="1" parent="1">
          <mxGeometry x="570" y="650" width="120" height="60" as="geometry" />
        </mxCell>
        <mxCell id="1g7H_u_md6x3JNWwbRPS-21" value="" style="edgeStyle=orthogonalEdgeStyle;rounded=0;orthogonalLoop=1;jettySize=auto;html=1;" edge="1" parent="1" source="1g7H_u_md6x3JNWwbRPS-19" target="1g7H_u_md6x3JNWwbRPS-20">
          <mxGeometry relative="1" as="geometry" />
        </mxCell>
        <mxCell id="1g7H_u_md6x3JNWwbRPS-22" value="si&lt;div&gt;&lt;br&gt;&lt;/div&gt;" style="edgeLabel;html=1;align=center;verticalAlign=middle;resizable=0;points=[];" vertex="1" connectable="0" parent="1g7H_u_md6x3JNWwbRPS-21">
          <mxGeometry x="-0.0222" y="2" relative="1" as="geometry">
            <mxPoint as="offset" />
          </mxGeometry>
        </mxCell>
        <mxCell id="1g7H_u_md6x3JNWwbRPS-23" style="edgeStyle=orthogonalEdgeStyle;rounded=0;orthogonalLoop=1;jettySize=auto;html=1;entryX=1;entryY=0.5;entryDx=0;entryDy=0;" edge="1" parent="1" source="1g7H_u_md6x3JNWwbRPS-19" target="1g7H_u_md6x3JNWwbRPS-25">
          <mxGeometry relative="1" as="geometry">
            <mxPoint x="110" y="680" as="targetPoint" />
          </mxGeometry>
        </mxCell>
        <mxCell id="1g7H_u_md6x3JNWwbRPS-24" value="no&lt;div&gt;&lt;br&gt;&lt;/div&gt;" style="edgeLabel;html=1;align=center;verticalAlign=middle;resizable=0;points=[];" vertex="1" connectable="0" parent="1g7H_u_md6x3JNWwbRPS-23">
          <mxGeometry x="0.0148" y="1" relative="1" as="geometry">
            <mxPoint as="offset" />
          </mxGeometry>
        </mxCell>
        <mxCell id="1g7H_u_md6x3JNWwbRPS-19" value="&quot;¿B &amp;gt; A?&quot;" style="rhombus;whiteSpace=wrap;html=1;" vertex="1" parent="1">
          <mxGeometry x="210" y="640" width="80" height="80" as="geometry" />
        </mxCell>
        <mxCell id="1g7H_u_md6x3JNWwbRPS-20" value="&quot;B es el mayor&quot;" style="shape=parallelogram;perimeter=parallelogramPerimeter;whiteSpace=wrap;html=1;fixedSize=1;" vertex="1" parent="1">
          <mxGeometry x="190" y="810" width="120" height="60" as="geometry" />
        </mxCell>
        <mxCell id="1g7H_u_md6x3JNWwbRPS-25" value="&quot;A y B son iguales&quot;" style="shape=parallelogram;perimeter=parallelogramPerimeter;whiteSpace=wrap;html=1;fixedSize=1;" vertex="1" parent="1">
          <mxGeometry x="-10" y="650" width="120" height="60" as="geometry" />
        </mxCell>
        <mxCell id="1g7H_u_md6x3JNWwbRPS-26" value="" style="curved=1;endArrow=classic;html=1;rounded=0;exitX=0.5;exitY=0;exitDx=0;exitDy=0;" edge="1" parent="1" source="1g7H_u_md6x3JNWwbRPS-25" target="1g7H_u_md6x3JNWwbRPS-7">
          <mxGeometry width="50" height="50" relative="1" as="geometry">
            <mxPoint x="50" y="635" as="sourcePoint" />
            <mxPoint x="100" y="585" as="targetPoint" />
            <Array as="points">
              <mxPoint x="100" y="635" />
              <mxPoint x="50" y="585" />
            </Array>
          </mxGeometry>
        </mxCell>
        <mxCell id="1g7H_u_md6x3JNWwbRPS-31" style="edgeStyle=orthogonalEdgeStyle;rounded=0;orthogonalLoop=1;jettySize=auto;html=1;exitX=0;exitY=0.5;exitDx=0;exitDy=0;exitPerimeter=0;" edge="1" parent="1" source="1g7H_u_md6x3JNWwbRPS-28" target="1g7H_u_md6x3JNWwbRPS-30">
          <mxGeometry relative="1" as="geometry" />
        </mxCell>
        <mxCell id="1g7H_u_md6x3JNWwbRPS-28" value="" style="strokeWidth=2;html=1;shape=mxgraph.flowchart.annotation_2;align=left;labelPosition=right;pointerEvents=1;rotation=-90;" vertex="1" parent="1">
          <mxGeometry x="510" y="880" width="50" height="100" as="geometry" />
        </mxCell>
        <mxCell id="1g7H_u_md6x3JNWwbRPS-29" style="edgeStyle=orthogonalEdgeStyle;rounded=0;orthogonalLoop=1;jettySize=auto;html=1;entryX=1;entryY=0;entryDx=0;entryDy=0;entryPerimeter=0;" edge="1" parent="1" source="1g7H_u_md6x3JNWwbRPS-20" target="1g7H_u_md6x3JNWwbRPS-28">
          <mxGeometry relative="1" as="geometry" />
        </mxCell>
        <mxCell id="1g7H_u_md6x3JNWwbRPS-30" value="FIN&lt;div&gt;&lt;br&gt;&lt;/div&gt;" style="ellipse;whiteSpace=wrap;html=1;" vertex="1" parent="1">
          <mxGeometry x="475" y="970" width="120" height="80" as="geometry" />
        </mxCell>
      </root>
    </mxGraphModel>
  </diagram>
  <diagram id="7uif13Z79QqVYhewUQM3" name="EJERCICIO 4">
    <mxGraphModel dx="1078" dy="441" grid="1" gridSize="10" guides="1" tooltips="1" connect="1" arrows="1" fold="1" page="1" pageScale="1" pageWidth="827" pageHeight="1169" math="0" shadow="0">
      <root>
        <mxCell id="0" />
        <mxCell id="1" parent="0" />
        <mxCell id="zbIiLr9xVLCbWGCjMWev-3" value="" style="edgeStyle=orthogonalEdgeStyle;rounded=0;orthogonalLoop=1;jettySize=auto;html=1;" edge="1" parent="1" source="zbIiLr9xVLCbWGCjMWev-1" target="zbIiLr9xVLCbWGCjMWev-2">
          <mxGeometry relative="1" as="geometry" />
        </mxCell>
        <mxCell id="zbIiLr9xVLCbWGCjMWev-1" value="INICIO&lt;div&gt;&lt;br&gt;&lt;/div&gt;" style="ellipse;whiteSpace=wrap;html=1;" vertex="1" parent="1">
          <mxGeometry x="350" y="190" width="120" height="80" as="geometry" />
        </mxCell>
        <mxCell id="zbIiLr9xVLCbWGCjMWev-5" value="" style="edgeStyle=orthogonalEdgeStyle;rounded=0;orthogonalLoop=1;jettySize=auto;html=1;" edge="1" parent="1" source="zbIiLr9xVLCbWGCjMWev-2" target="zbIiLr9xVLCbWGCjMWev-4">
          <mxGeometry relative="1" as="geometry" />
        </mxCell>
        <mxCell id="zbIiLr9xVLCbWGCjMWev-2" value="&quot;Ingresar el año&quot;" style="shape=parallelogram;perimeter=parallelogramPerimeter;whiteSpace=wrap;html=1;fixedSize=1;" vertex="1" parent="1">
          <mxGeometry x="350" y="360" width="120" height="60" as="geometry" />
        </mxCell>
        <mxCell id="zbIiLr9xVLCbWGCjMWev-7" value="" style="edgeStyle=orthogonalEdgeStyle;rounded=0;orthogonalLoop=1;jettySize=auto;html=1;" edge="1" parent="1" source="zbIiLr9xVLCbWGCjMWev-4" target="zbIiLr9xVLCbWGCjMWev-6">
          <mxGeometry relative="1" as="geometry" />
        </mxCell>
        <mxCell id="zbIiLr9xVLCbWGCjMWev-4" value="¿Es divisible entre 4?" style="whiteSpace=wrap;html=1;" vertex="1" parent="1">
          <mxGeometry x="350" y="500" width="120" height="60" as="geometry" />
        </mxCell>
        <mxCell id="zbIiLr9xVLCbWGCjMWev-8" style="edgeStyle=orthogonalEdgeStyle;rounded=0;orthogonalLoop=1;jettySize=auto;html=1;entryX=1;entryY=0.75;entryDx=0;entryDy=0;" edge="1" parent="1" source="zbIiLr9xVLCbWGCjMWev-6" target="zbIiLr9xVLCbWGCjMWev-10">
          <mxGeometry relative="1" as="geometry">
            <mxPoint x="280" y="670" as="targetPoint" />
          </mxGeometry>
        </mxCell>
        <mxCell id="zbIiLr9xVLCbWGCjMWev-9" value="NO" style="edgeLabel;html=1;align=center;verticalAlign=middle;resizable=0;points=[];" vertex="1" connectable="0" parent="zbIiLr9xVLCbWGCjMWev-8">
          <mxGeometry x="-0.116" y="-4" relative="1" as="geometry">
            <mxPoint as="offset" />
          </mxGeometry>
        </mxCell>
        <mxCell id="zbIiLr9xVLCbWGCjMWev-12" style="edgeStyle=orthogonalEdgeStyle;rounded=0;orthogonalLoop=1;jettySize=auto;html=1;entryX=0;entryY=0.5;entryDx=0;entryDy=0;" edge="1" parent="1" source="zbIiLr9xVLCbWGCjMWev-6" target="zbIiLr9xVLCbWGCjMWev-14">
          <mxGeometry relative="1" as="geometry">
            <mxPoint x="510" y="670" as="targetPoint" />
          </mxGeometry>
        </mxCell>
        <mxCell id="zbIiLr9xVLCbWGCjMWev-13" value="SI&lt;div&gt;&lt;br&gt;&lt;/div&gt;" style="edgeLabel;html=1;align=center;verticalAlign=middle;resizable=0;points=[];" vertex="1" connectable="0" parent="zbIiLr9xVLCbWGCjMWev-12">
          <mxGeometry x="-0.3719" y="2" relative="1" as="geometry">
            <mxPoint as="offset" />
          </mxGeometry>
        </mxCell>
        <mxCell id="zbIiLr9xVLCbWGCjMWev-6" value="&quot;¿Año % 4 == 0?&quot;" style="rhombus;whiteSpace=wrap;html=1;" vertex="1" parent="1">
          <mxGeometry x="370" y="630" width="80" height="80" as="geometry" />
        </mxCell>
        <mxCell id="zbIiLr9xVLCbWGCjMWev-23" style="edgeStyle=orthogonalEdgeStyle;rounded=0;orthogonalLoop=1;jettySize=auto;html=1;entryX=1;entryY=0;entryDx=0;entryDy=0;entryPerimeter=0;" edge="1" parent="1" source="zbIiLr9xVLCbWGCjMWev-10" target="zbIiLr9xVLCbWGCjMWev-24">
          <mxGeometry relative="1" as="geometry">
            <mxPoint x="220" y="900" as="targetPoint" />
          </mxGeometry>
        </mxCell>
        <mxCell id="zbIiLr9xVLCbWGCjMWev-10" value="&quot;No es bisiesto&quot;&amp;nbsp;" style="shape=parallelogram;perimeter=parallelogramPerimeter;whiteSpace=wrap;html=1;fixedSize=1;" vertex="1" parent="1">
          <mxGeometry x="160" y="630" width="120" height="60" as="geometry" />
        </mxCell>
        <mxCell id="zbIiLr9xVLCbWGCjMWev-16" value="" style="edgeStyle=orthogonalEdgeStyle;rounded=0;orthogonalLoop=1;jettySize=auto;html=1;" edge="1" parent="1" source="zbIiLr9xVLCbWGCjMWev-14" target="zbIiLr9xVLCbWGCjMWev-15">
          <mxGeometry relative="1" as="geometry" />
        </mxCell>
        <mxCell id="zbIiLr9xVLCbWGCjMWev-14" value="¿Es divisible entre 400?" style="rounded=0;whiteSpace=wrap;html=1;" vertex="1" parent="1">
          <mxGeometry x="530" y="640" width="120" height="60" as="geometry" />
        </mxCell>
        <mxCell id="zbIiLr9xVLCbWGCjMWev-18" value="" style="edgeStyle=orthogonalEdgeStyle;rounded=0;orthogonalLoop=1;jettySize=auto;html=1;entryX=0;entryY=0.5;entryDx=0;entryDy=0;" edge="1" parent="1" source="zbIiLr9xVLCbWGCjMWev-15" target="zbIiLr9xVLCbWGCjMWev-19">
          <mxGeometry relative="1" as="geometry">
            <mxPoint x="790" y="810" as="targetPoint" />
          </mxGeometry>
        </mxCell>
        <mxCell id="zbIiLr9xVLCbWGCjMWev-22" value="" style="edgeStyle=orthogonalEdgeStyle;rounded=0;orthogonalLoop=1;jettySize=auto;html=1;" edge="1" parent="1" source="zbIiLr9xVLCbWGCjMWev-15" target="zbIiLr9xVLCbWGCjMWev-21">
          <mxGeometry relative="1" as="geometry" />
        </mxCell>
        <mxCell id="zbIiLr9xVLCbWGCjMWev-15" value="&#xa;&quot;¿Año % 400 == 0?&quot;&#xa;&#xa;" style="rhombus;whiteSpace=wrap;html=1;rounded=0;" vertex="1" parent="1">
          <mxGeometry x="500" y="770" width="180" height="80" as="geometry" />
        </mxCell>
        <mxCell id="zbIiLr9xVLCbWGCjMWev-19" value="&quot;Es bisiesto&quot;" style="shape=parallelogram;perimeter=parallelogramPerimeter;whiteSpace=wrap;html=1;fixedSize=1;" vertex="1" parent="1">
          <mxGeometry x="790" y="780" width="120" height="60" as="geometry" />
        </mxCell>
        <mxCell id="zbIiLr9xVLCbWGCjMWev-21" value="&#xa; &quot;No es bisiesto&quot;.&#xa;&#xa;" style="shape=parallelogram;perimeter=parallelogramPerimeter;whiteSpace=wrap;html=1;fixedSize=1;rounded=0;" vertex="1" parent="1">
          <mxGeometry x="270" y="780" width="120" height="60" as="geometry" />
        </mxCell>
        <mxCell id="zbIiLr9xVLCbWGCjMWev-24" value="" style="strokeWidth=2;html=1;shape=mxgraph.flowchart.annotation_2;align=left;labelPosition=right;pointerEvents=1;rotation=-88;" vertex="1" parent="1">
          <mxGeometry x="191.16" y="903.7" width="57.41" height="100" as="geometry" />
        </mxCell>
        <mxCell id="zbIiLr9xVLCbWGCjMWev-25" style="edgeStyle=orthogonalEdgeStyle;rounded=0;orthogonalLoop=1;jettySize=auto;html=1;entryX=1;entryY=1;entryDx=0;entryDy=0;entryPerimeter=0;" edge="1" parent="1" source="zbIiLr9xVLCbWGCjMWev-21" target="zbIiLr9xVLCbWGCjMWev-24">
          <mxGeometry relative="1" as="geometry" />
        </mxCell>
        <mxCell id="zbIiLr9xVLCbWGCjMWev-29" value="" style="curved=1;endArrow=classic;html=1;rounded=0;entryX=0.5;entryY=1;entryDx=0;entryDy=0;entryPerimeter=0;exitX=0.375;exitY=0.95;exitDx=0;exitDy=0;exitPerimeter=0;" edge="1" parent="1" source="zbIiLr9xVLCbWGCjMWev-19" target="zbIiLr9xVLCbWGCjMWev-24">
          <mxGeometry width="50" height="50" relative="1" as="geometry">
            <mxPoint x="420" y="970" as="sourcePoint" />
            <mxPoint x="470" y="920" as="targetPoint" />
            <Array as="points">
              <mxPoint x="470" y="970" />
              <mxPoint x="420" y="920" />
            </Array>
          </mxGeometry>
        </mxCell>
        <mxCell id="zbIiLr9xVLCbWGCjMWev-31" value="FIN&lt;div&gt;&lt;br&gt;&lt;/div&gt;" style="ellipse;whiteSpace=wrap;html=1;" vertex="1" parent="1">
          <mxGeometry x="150" y="1020" width="120" height="80" as="geometry" />
        </mxCell>
        <mxCell id="zbIiLr9xVLCbWGCjMWev-32" style="edgeStyle=orthogonalEdgeStyle;rounded=0;orthogonalLoop=1;jettySize=auto;html=1;entryX=0.608;entryY=-0.025;entryDx=0;entryDy=0;entryPerimeter=0;" edge="1" parent="1" source="zbIiLr9xVLCbWGCjMWev-24" target="zbIiLr9xVLCbWGCjMWev-31">
          <mxGeometry relative="1" as="geometry" />
        </mxCell>
      </root>
    </mxGraphModel>
  </diagram>
  <diagram id="ugdoTZYykY_Xnc8ImNP1" name="EJERCICIO 5">
    <mxGraphModel dx="1078" dy="441" grid="1" gridSize="10" guides="1" tooltips="1" connect="1" arrows="1" fold="1" page="1" pageScale="1" pageWidth="827" pageHeight="1169" math="0" shadow="0">
      <root>
        <mxCell id="0" />
        <mxCell id="1" parent="0" />
        <mxCell id="kQYdgOtABVh_-tpePEQ8-5" value="" style="edgeStyle=orthogonalEdgeStyle;rounded=0;orthogonalLoop=1;jettySize=auto;html=1;" edge="1" parent="1" source="kQYdgOtABVh_-tpePEQ8-1" target="kQYdgOtABVh_-tpePEQ8-2">
          <mxGeometry relative="1" as="geometry" />
        </mxCell>
        <mxCell id="kQYdgOtABVh_-tpePEQ8-1" value="inicio&lt;div&gt;&lt;br&gt;&lt;/div&gt;" style="ellipse;whiteSpace=wrap;html=1;" vertex="1" parent="1">
          <mxGeometry x="350" y="190" width="120" height="80" as="geometry" />
        </mxCell>
        <mxCell id="kQYdgOtABVh_-tpePEQ8-8" value="" style="edgeStyle=orthogonalEdgeStyle;rounded=0;orthogonalLoop=1;jettySize=auto;html=1;" edge="1" parent="1" source="kQYdgOtABVh_-tpePEQ8-2" target="kQYdgOtABVh_-tpePEQ8-6">
          <mxGeometry relative="1" as="geometry" />
        </mxCell>
        <mxCell id="kQYdgOtABVh_-tpePEQ8-2" value="&lt;p data-pm-slice=&quot;1 1 [&amp;quot;ordered_list&amp;quot;,{&amp;quot;spread&amp;quot;:true,&amp;quot;startingNumber&amp;quot;:1,&amp;quot;start&amp;quot;:64,&amp;quot;end&amp;quot;:829},&amp;quot;regular_list_item&amp;quot;,{&amp;quot;start&amp;quot;:133,&amp;quot;end&amp;quot;:234},&amp;quot;list&amp;quot;,{&amp;quot;spread&amp;quot;:false,&amp;quot;start&amp;quot;:160,&amp;quot;end&amp;quot;:234},&amp;quot;regular_list_item&amp;quot;,{&amp;quot;start&amp;quot;:160,&amp;quot;end&amp;quot;:234}]&quot;&gt;&amp;nbsp;&quot;Ingresar el monto de la compra&quot;.&lt;/p&gt;" style="shape=parallelogram;perimeter=parallelogramPerimeter;whiteSpace=wrap;html=1;fixedSize=1;" vertex="1" parent="1">
          <mxGeometry x="320" y="290" width="170" height="60" as="geometry" />
        </mxCell>
        <mxCell id="kQYdgOtABVh_-tpePEQ8-11" style="edgeStyle=orthogonalEdgeStyle;rounded=0;orthogonalLoop=1;jettySize=auto;html=1;entryX=0;entryY=0.5;entryDx=0;entryDy=0;" edge="1" parent="1" source="kQYdgOtABVh_-tpePEQ8-6" target="b36gU2-39XfcRSPjY5sl-1">
          <mxGeometry relative="1" as="geometry">
            <mxPoint x="530" y="420" as="targetPoint" />
          </mxGeometry>
        </mxCell>
        <mxCell id="kQYdgOtABVh_-tpePEQ8-12" value="si" style="edgeLabel;html=1;align=center;verticalAlign=middle;resizable=0;points=[];" vertex="1" connectable="0" parent="kQYdgOtABVh_-tpePEQ8-11">
          <mxGeometry x="-0.3664" relative="1" as="geometry">
            <mxPoint as="offset" />
          </mxGeometry>
        </mxCell>
        <mxCell id="b36gU2-39XfcRSPjY5sl-2" style="edgeStyle=orthogonalEdgeStyle;rounded=0;orthogonalLoop=1;jettySize=auto;html=1;" edge="1" parent="1" source="kQYdgOtABVh_-tpePEQ8-6">
          <mxGeometry relative="1" as="geometry">
            <mxPoint x="280" y="420" as="targetPoint" />
          </mxGeometry>
        </mxCell>
        <mxCell id="kQYdgOtABVh_-tpePEQ8-6" value="&lt;p data-pm-slice=&quot;1 1 [&amp;quot;ordered_list&amp;quot;,{&amp;quot;spread&amp;quot;:true,&amp;quot;startingNumber&amp;quot;:1,&amp;quot;start&amp;quot;:64,&amp;quot;end&amp;quot;:829},&amp;quot;regular_list_item&amp;quot;,{&amp;quot;start&amp;quot;:236,&amp;quot;end&amp;quot;:539},&amp;quot;list&amp;quot;,{&amp;quot;spread&amp;quot;:false,&amp;quot;start&amp;quot;:282,&amp;quot;end&amp;quot;:539},&amp;quot;regular_list_item&amp;quot;,{&amp;quot;start&amp;quot;:282,&amp;quot;end&amp;quot;:539}]&quot;&gt;&amp;nbsp;&quot;¿Monto &amp;gt; 1000?&quot;&lt;/p&gt;" style="rhombus;whiteSpace=wrap;html=1;" vertex="1" parent="1">
          <mxGeometry x="330" y="380" width="150" height="80" as="geometry" />
        </mxCell>
        <mxCell id="b36gU2-39XfcRSPjY5sl-10" value="" style="edgeStyle=orthogonalEdgeStyle;rounded=0;orthogonalLoop=1;jettySize=auto;html=1;entryX=0.5;entryY=0;entryDx=0;entryDy=0;" edge="1" parent="1" source="b36gU2-39XfcRSPjY5sl-1" target="b36gU2-39XfcRSPjY5sl-12">
          <mxGeometry relative="1" as="geometry">
            <mxPoint x="655" y="480" as="targetPoint" />
          </mxGeometry>
        </mxCell>
        <mxCell id="b36gU2-39XfcRSPjY5sl-1" value="&lt;p data-pm-slice=&quot;1 1 [&amp;quot;ordered_list&amp;quot;,{&amp;quot;spread&amp;quot;:true,&amp;quot;startingNumber&amp;quot;:1,&amp;quot;start&amp;quot;:64,&amp;quot;end&amp;quot;:829},&amp;quot;regular_list_item&amp;quot;,{&amp;quot;start&amp;quot;:236,&amp;quot;end&amp;quot;:539},&amp;quot;list&amp;quot;,{&amp;quot;spread&amp;quot;:false,&amp;quot;start&amp;quot;:282,&amp;quot;end&amp;quot;:539},&amp;quot;regular_list_item&amp;quot;,{&amp;quot;start&amp;quot;:282,&amp;quot;end&amp;quot;:539},&amp;quot;list&amp;quot;,{&amp;quot;spread&amp;quot;:false,&amp;quot;start&amp;quot;:345,&amp;quot;end&amp;quot;:539},&amp;quot;regular_list_item&amp;quot;,{&amp;quot;start&amp;quot;:345,&amp;quot;end&amp;quot;:454}]&quot;&gt;&lt;strong&gt;Descuento = Monto * 0.10&lt;/strong&gt;&lt;/p&gt;" style="shape=parallelogram;perimeter=parallelogramPerimeter;whiteSpace=wrap;html=1;fixedSize=1;" vertex="1" parent="1">
          <mxGeometry x="560" y="390" width="190" height="60" as="geometry" />
        </mxCell>
        <mxCell id="b36gU2-39XfcRSPjY5sl-3" value="0" style="shape=parallelogram;perimeter=parallelogramPerimeter;whiteSpace=wrap;html=1;fixedSize=1;" vertex="1" parent="1">
          <mxGeometry x="180" y="400" width="120" height="60" as="geometry" />
        </mxCell>
        <mxCell id="b36gU2-39XfcRSPjY5sl-4" value="" style="curved=1;endArrow=classic;html=1;rounded=0;entryX=0;entryY=0.5;entryDx=0;entryDy=0;exitX=0.375;exitY=-0.067;exitDx=0;exitDy=0;exitPerimeter=0;" edge="1" parent="1" source="b36gU2-39XfcRSPjY5sl-3" target="kQYdgOtABVh_-tpePEQ8-2">
          <mxGeometry width="50" height="50" relative="1" as="geometry">
            <mxPoint x="240" y="370" as="sourcePoint" />
            <mxPoint x="290" y="320" as="targetPoint" />
            <Array as="points">
              <mxPoint x="290" y="370" />
              <mxPoint x="240" y="320" />
            </Array>
          </mxGeometry>
        </mxCell>
        <mxCell id="b36gU2-39XfcRSPjY5sl-11" value="" style="edgeStyle=orthogonalEdgeStyle;rounded=0;orthogonalLoop=1;jettySize=auto;html=1;exitX=0.5;exitY=1;exitDx=0;exitDy=0;entryX=0.5;entryY=0;entryDx=0;entryDy=0;" edge="1" parent="1" source="b36gU2-39XfcRSPjY5sl-12" target="b36gU2-39XfcRSPjY5sl-13">
          <mxGeometry relative="1" as="geometry">
            <mxPoint x="655" y="560" as="sourcePoint" />
            <mxPoint x="655" y="600" as="targetPoint" />
          </mxGeometry>
        </mxCell>
        <mxCell id="b36gU2-39XfcRSPjY5sl-12" value="&lt;p data-pm-slice=&quot;1 1 [&amp;quot;ordered_list&amp;quot;,{&amp;quot;spread&amp;quot;:true,&amp;quot;startingNumber&amp;quot;:1,&amp;quot;start&amp;quot;:64,&amp;quot;end&amp;quot;:829},&amp;quot;regular_list_item&amp;quot;,{&amp;quot;start&amp;quot;:541,&amp;quot;end&amp;quot;:667}]&quot;&gt;&lt;strong&gt;Calcular el monto final&lt;/strong&gt;&lt;/p&gt;" style="rounded=0;whiteSpace=wrap;html=1;" vertex="1" parent="1">
          <mxGeometry x="595" y="490" width="120" height="60" as="geometry" />
        </mxCell>
        <mxCell id="b36gU2-39XfcRSPjY5sl-15" value="" style="edgeStyle=orthogonalEdgeStyle;rounded=0;orthogonalLoop=1;jettySize=auto;html=1;" edge="1" parent="1" source="b36gU2-39XfcRSPjY5sl-13" target="b36gU2-39XfcRSPjY5sl-14">
          <mxGeometry relative="1" as="geometry" />
        </mxCell>
        <mxCell id="b36gU2-39XfcRSPjY5sl-13" value="&lt;strong&gt;Monto Final = Monto - Descuento&lt;/strong&gt;" style="rounded=0;whiteSpace=wrap;html=1;" vertex="1" parent="1">
          <mxGeometry x="595" y="610" width="120" height="60" as="geometry" />
        </mxCell>
        <mxCell id="b36gU2-39XfcRSPjY5sl-17" value="" style="edgeStyle=orthogonalEdgeStyle;rounded=0;orthogonalLoop=1;jettySize=auto;html=1;" edge="1" parent="1" source="b36gU2-39XfcRSPjY5sl-14" target="b36gU2-39XfcRSPjY5sl-16">
          <mxGeometry relative="1" as="geometry" />
        </mxCell>
        <mxCell id="b36gU2-39XfcRSPjY5sl-14" value="&lt;p data-pm-slice=&quot;1 1 [&amp;quot;ordered_list&amp;quot;,{&amp;quot;spread&amp;quot;:true,&amp;quot;startingNumber&amp;quot;:1,&amp;quot;start&amp;quot;:64,&amp;quot;end&amp;quot;:829},&amp;quot;regular_list_item&amp;quot;,{&amp;quot;start&amp;quot;:669,&amp;quot;end&amp;quot;:766},&amp;quot;list&amp;quot;,{&amp;quot;spread&amp;quot;:false,&amp;quot;start&amp;quot;:700,&amp;quot;end&amp;quot;:766},&amp;quot;regular_list_item&amp;quot;,{&amp;quot;start&amp;quot;:700,&amp;quot;end&amp;quot;:766}]&quot;&gt;&quot;Mostrar el monto final&quot;&lt;/p&gt;" style="shape=parallelogram;perimeter=parallelogramPerimeter;whiteSpace=wrap;html=1;fixedSize=1;rounded=0;" vertex="1" parent="1">
          <mxGeometry x="595" y="750" width="120" height="60" as="geometry" />
        </mxCell>
        <mxCell id="b36gU2-39XfcRSPjY5sl-16" value="fin&lt;div&gt;&lt;br&gt;&lt;/div&gt;" style="ellipse;whiteSpace=wrap;html=1;rounded=0;" vertex="1" parent="1">
          <mxGeometry x="590" y="880" width="130" height="80" as="geometry" />
        </mxCell>
      </root>
    </mxGraphModel>
  </diagram>
</mxfile>
